<?xml version="1.0" encoding="utf-8"?>
<!-- Generator: Adobe Illustrator 24.0.0, SVG Export Plug-In . SVG Version: 6.00 Build 0)  -->
<svg version="1.1" id="Layer_1" xmlns="http://www.w3.org/2000/svg" xmlns:xlink="http://www.w3.org/1999/xlink" x="0px" y="0px"
	 viewBox="0 0 1041.57 249.97" style="enable-background:new 0 0 1041.57 249.97;" xml:space="preserve">
<style type="text/css">
	.st0{fill:#007DBC;}
</style>
<g>
	<path class="st0" d="M157.86,34.9c-7.4-1.11-14.44,3.58-16.18,10.86l-5.79,24.16c-1.41,5.88-6.34,10.24-12.34,10.93l-34.29,3.92
		c-36.95,4-63.43,37.84-58.08,74.94c4.25,29.42,27.99,51.21,56.31,55.46c7.4,1.11,14.44-3.58,16.18-10.86l5.79-24.16
		c1.41-5.87,6.34-10.24,12.34-10.92l34.29-3.92c36.95-4,63.43-37.84,58.08-74.94C209.91,60.94,186.18,39.15,157.86,34.9z
		 M150.45,121.76l-21.67,2.57c-3.66,0.39-6.67,3.05-7.52,6.62l-6.32,26.36c-1.86,7.79-8.3,13.63-16.22,14.75
		c-12.28,1.33-23.28-7.74-24.25-20.14c-0.94-11.98,8.49-22.32,20.44-23.61l21.67-2.57c3.66-0.4,6.67-3.05,7.52-6.62l6.32-26.36
		c1.87-7.78,8.3-13.63,16.22-14.75c12.28-1.33,23.28,7.73,24.25,20.13C171.82,110.13,162.4,120.46,150.45,121.76z"/>
	<rect x="529.66" y="55.96" class="st0" width="26.93" height="138.14"/>
	<path class="st0" d="M323.8,77.32c23.85,0,28.28,15.58,30.59,23.85h28.84c-1.53-20.4-18.27-48.87-59.62-48.87
		c-35.58,0-63.47,24.62-63.47,72.92c0,47.72,26.35,72.54,63.09,72.54c34.62,0,54.24-20.97,60-50.99h-28.84
		c-3.47,16.94-14.62,25.99-30.59,25.99c-24.42,0-34.24-22.33-34.24-47.16C289.56,86.54,309.95,77.32,323.8,77.32z"/>
	<path class="st0" d="M440.17,196.8c17.52,0,37.9-8.09,45.01-32.71h-27.68c-2.13,7.31-9.81,11.16-17.32,11.16
		c-21.73,0-23.26-17.31-24.03-25.02h70.2v-4.81c0-46.74-27.89-56.37-48.08-56.37c-44.81,0-49.04,39.45-49.04,51.76
		C389.21,182.95,411.33,196.8,440.17,196.8z M437.87,111.17c8.65,0,19.24,5.01,20.77,21.55h-41.74
		C418.44,119.26,425.17,111.17,437.87,111.17z"/>
	<rect x="493.46" y="55.96" class="st0" width="26.94" height="138.14"/>
	<path class="st0" d="M645.86,99.93c0-22.53-13.4-44.46-47.95-44.46h-32.03v23.69h23.68c14.17,0,26.8,3.1,26.8,20.77
		s-12.63,20.78-26.8,20.78h-23.68v23.67h32.03C632.47,144.39,645.86,122.45,645.86,99.93z"/>
	<path class="st0" d="M717.14,91.96c-1.74-0.58-4.08-0.97-6.01-0.97c-13.4,0-26.98,8.74-32.03,21.36h-0.39V93.71h-26.2V194.1h27.56
		v-45.24c0-17.68,6.99-32.23,27.18-32.23c3.29,0,7.38,0.39,9.89,0.97V91.96z"/>
	<path class="st0" d="M813.63,163.03h-24.27c-1.74,6.2-10.67,13.01-21.73,13.01c-15.34,0-23.88-7.97-24.65-25.43h72.4
		c1.93-30.89-14.56-59.62-48.72-59.62c-30.47,0-51.25,22.93-51.25,53.01c0,31.06,19.62,52.8,51.25,52.8
		C789.37,196.81,805.86,186.72,813.63,163.03z M765.87,111.77c13.4,0,19.42,7.37,21.94,21.36h-44.83
		C743.36,125.36,748.41,111.77,765.87,111.77z"/>
	<path class="st0" d="M912.03,161.87c0-18.65-15.73-24.47-31.84-28.16c-15.71-3.69-31.24-5.04-31.24-14.95
		c0-8.15,9.12-9.32,15.34-9.32c9.89,0,18.05,2.91,18.82,13.59h26.2c-2.14-24.64-22.32-32.03-44.25-32.03
		c-21.55,0-43.67,6.6-43.67,32.24c0,17.66,15.91,23.3,31.81,26.78c19.81,4.27,31.25,7.19,31.25,15.54c0,9.7-10.09,12.82-18.05,12.82
		c-10.87,0-20.96-4.85-21.15-16.89h-26.21c1.17,26.6,23.88,35.33,47.17,35.33C889.12,196.81,912.03,188.27,912.03,161.87z"/>
	<path class="st0" d="M976.65,133.71c-15.72-3.69-31.25-5.04-31.25-14.95c0-8.15,9.12-9.32,15.34-9.32
		c9.89,0,18.04,2.91,18.83,13.59h26.19c-2.13-24.64-22.32-32.03-44.25-32.03c-21.55,0-43.67,6.6-43.67,32.24
		c0,17.66,15.92,23.3,31.84,26.78c19.79,4.27,31.25,7.19,31.25,15.54c0,9.7-10.1,12.82-18.05,12.82c-10.87,0-20.97-4.85-21.16-16.89
		h-26.2c1.15,26.6,23.87,35.33,47.17,35.33c22.9,0,45.79-8.54,45.79-34.94C1008.48,143.22,992.76,137.4,976.65,133.71z"/>
</g>
</svg>
