<?xml version="1.0" encoding="utf-8"?>
<!-- Generator: Adobe Illustrator 16.0.4, SVG Export Plug-In . SVG Version: 6.00 Build 0)  -->
<!DOCTYPE svg PUBLIC "-//W3C//DTD SVG 1.1//EN" "http://www.w3.org/Graphics/SVG/1.1/DTD/svg11.dtd">
<svg version="1.1" id="Layer_1" xmlns="http://www.w3.org/2000/svg" xmlns:xlink="http://www.w3.org/1999/xlink" x="0px" y="0px"
	 width="434.17px" height="40px" viewBox="0 0 434.17 40" enable-background="new 0 0 434.17 40" xml:space="preserve">
<g>
	<path fill="#FFFFFF" d="M9.339,5.905H0V0.112h25.595v5.793h-9.339v25.423H9.425V5.905H9.339z"/>
	<path fill="#FFFFFF" d="M23.001,8.759h5.88v4.237h0.086c1.124-2.854,4.237-4.843,7.177-4.843c0.432,0,0.951,0.086,1.383,0.26v5.793
		c-0.605-0.173-1.47-0.259-2.248-0.259c-4.583,0-6.14,3.286-6.14,7.264v10.203h-6.226V8.759H23.001z"/>
	<path fill="#FFFFFF" d="M42.803,21.557c0.173,3.978,2.075,5.707,5.534,5.707c2.507,0,4.496-1.557,4.929-2.939h5.448
		c-1.729,5.36-5.448,7.609-10.55,7.609c-7.09,0-11.587-4.93-11.587-11.934c0-6.745,4.669-11.933,11.587-11.933
		c7.696,0,11.415,6.485,10.982,13.403H42.803V21.557z M52.92,17.579c-0.605-3.113-1.902-4.842-4.929-4.842
		c-3.978,0-5.102,3.026-5.188,4.842H52.92z"/>
	<path fill="#FFFFFF" d="M61.221,8.759h5.88v3.113h0.173c1.556-2.507,4.323-3.718,6.917-3.718c6.572,0,8.301,3.718,8.301,9.339
		v13.922h-6.226V18.616c0-3.718-1.124-5.534-3.978-5.534c-3.372,0-4.842,1.902-4.842,6.485v11.847h-6.226V8.759z"/>
	<path fill="#FFFFFF" d="M101.776,28.475h-0.087c-1.47,2.421-3.978,3.459-6.831,3.459c-6.831,0-10.117-5.881-10.117-12.106
		c0-6.053,3.373-11.76,10.031-11.76c2.681,0,5.275,1.124,6.658,3.373h0.086V0.112h6.226v31.216h-5.88v-2.854H101.776z
		 M96.329,12.823c-4.064,0-5.448,3.459-5.448,7.177c0,3.545,1.643,7.264,5.448,7.264c4.15,0,5.361-3.545,5.361-7.264
		C101.689,16.282,100.393,12.823,96.329,12.823z"/>
	<path fill="#FFFFFF" d="M115.698,23.978c0.087,2.681,2.335,3.805,4.756,3.805c1.815,0,4.064-0.691,4.064-2.854
		c0-1.902-2.594-2.508-7.004-3.459c-3.545-0.778-7.177-2.075-7.177-6.053c0-5.793,5.015-7.264,9.857-7.264
		c4.929,0,9.512,1.643,9.944,7.177h-5.88c-0.173-2.421-1.989-3.026-4.237-3.026c-1.383,0-3.459,0.259-3.459,2.075
		c0,2.248,3.459,2.508,7.004,3.373c3.632,0.864,7.177,2.162,7.177,6.312c0,5.967-5.188,7.869-10.29,7.869
		c-5.275,0-10.377-1.989-10.636-7.956H115.698z"/>
	<path fill="#FFFFFF" d="M146.654,5.213h-6.226V0.112h6.226V5.213z M140.429,8.759h6.226v22.655h-6.226V8.759z"/>
	<path fill="#FFFFFF" d="M150.027,8.759h5.88v3.113h0.173c1.556-2.507,4.323-3.718,6.917-3.718c6.572,0,8.301,3.718,8.301,9.339
		v13.922h-6.226V18.616c0-3.718-1.124-5.534-3.978-5.534c-3.373,0-4.842,1.902-4.842,6.485v11.847h-6.226V8.759z"/>
	<path fill="#FFFFFF" d="M182.54,0.112h9.685l7.264,21.445h0.086l6.917-21.445h9.685v31.216h-6.399V9.191h-0.086l-7.696,22.137
		h-5.275l-7.696-21.877h-0.086v21.877h-6.399V0.112z"/>
	<path fill="#FFFFFF" d="M226.381,5.213h-6.226V0.112h6.226V5.213z M220.241,8.759h6.227v22.655h-6.227V8.759z"/>
	<path fill="#FFFFFF" d="M245.145,16.714c-0.433-2.507-1.989-3.891-4.583-3.891c-3.978,0-5.274,4.064-5.274,7.35
		c0,3.2,1.297,7.091,5.188,7.091c2.854,0,4.582-1.816,4.929-4.583h5.966c-0.777,5.966-4.928,9.253-10.895,9.253
		c-6.832,0-11.414-4.843-11.414-11.588c0-7.004,4.236-12.279,11.587-12.279c5.36,0,10.204,2.767,10.636,8.561h-6.14V16.714z"/>
	<path fill="#FFFFFF" d="M253.359,8.759h5.88v4.237h0.087c1.124-2.854,4.237-4.843,7.177-4.843c0.433,0,0.951,0.086,1.384,0.26
		v5.793c-0.605-0.173-1.47-0.259-2.249-0.259c-4.582,0-6.139,3.286-6.139,7.264v10.203h-6.14V8.759z"/>
	<path fill="#FFFFFF" d="M279.042,8.153c7.09,0,11.76,4.756,11.76,11.933s-4.584,11.933-11.76,11.933
		c-7.092,0-11.674-4.756-11.674-11.933C267.368,12.823,271.95,8.153,279.042,8.153z M279.042,27.264
		c4.236,0,5.533-3.632,5.533-7.177c0-3.632-1.297-7.264-5.533-7.264c-4.238,0-5.448,3.632-5.448,7.264
		C273.594,23.632,274.804,27.264,279.042,27.264z"/>
	<path fill="#FFFFFF" d="M293.223,0.112h6.226v11.414h0.087c1.556-2.335,4.323-3.373,7.091-3.373c4.496,0,9.338,3.632,9.338,11.933
		s-4.842,11.933-9.338,11.933c-3.286,0-6.053-1.037-7.438-3.459l0,0v2.854h-5.879V0.112H293.223z M304.55,12.823
		c-3.631,0-5.274,3.459-5.274,7.264c0,3.804,1.644,7.177,5.274,7.177c3.633,0,5.275-3.459,5.275-7.177
		C309.825,16.282,308.183,12.823,304.55,12.823z"/>
	<path fill="#FFFFFF" d="M324.871,5.213h-6.226V0.112h6.226V5.213z M318.646,8.759h6.226v22.655h-6.226V8.759z"/>
	<path fill="#FFFFFF" d="M339.139,8.153c7.091,0,11.76,4.756,11.76,11.933s-4.583,11.933-11.76,11.933
		c-7.091,0-11.674-4.756-11.674-11.933C327.465,12.823,332.134,8.153,339.139,8.153z M339.139,27.264
		c4.237,0,5.534-3.632,5.534-7.177c0-3.632-1.297-7.264-5.534-7.264s-5.448,3.632-5.448,7.264
		C333.69,23.632,334.987,27.264,339.139,27.264z"/>
	<path fill="#FFFFFF" d="M353.579,0.112h6.227v31.216h-6.227V0.112z"/>
	<path fill="#FFFFFF" d="M374.159,8.153c7.091,0,11.76,4.756,11.76,11.933s-4.582,11.933-11.76,11.933
		c-7.09,0-11.674-4.756-11.674-11.933C362.485,12.823,367.069,8.153,374.159,8.153z M374.159,27.264
		c4.237,0,5.534-3.632,5.534-7.177c0-3.632-1.297-7.264-5.534-7.264c-4.236,0-5.447,3.632-5.447,7.264
		C368.625,23.632,369.923,27.264,374.159,27.264z"/>
	<path fill="#FFFFFF" d="M410.045,29.944c0,3.718-1.297,10.03-11.761,10.03c-4.496,0-9.684-2.075-9.943-7.264h6.139
		c0.605,2.335,2.422,3.113,4.67,3.113c3.459,0,5.016-2.335,5.016-5.621v-2.939h-0.087c-1.384,2.334-4.064,3.459-6.745,3.459
		c-6.744,0-9.685-5.188-9.685-11.415c0-5.88,3.372-11.241,9.685-11.241c2.94,0,5.275,1.038,6.745,3.632h0.087v-2.94h5.88V29.944z
		 M404.165,19.741c0-3.632-1.298-6.918-5.275-6.918c-3.459,0-5.016,3.027-5.016,6.399c0,3.199,1.211,6.745,5.016,6.745
		C402.436,26.053,404.165,23.026,404.165,19.741z"/>
	<path fill="#FFFFFF" d="M424.658,34.182c-1.384,3.631-3.459,5.102-7.782,5.102c-1.297,0-2.508-0.087-3.805-0.26v-5.102
		c1.21,0.086,2.421,0.26,3.632,0.26c2.161-0.26,2.854-2.422,2.161-4.237l-7.955-21.186h6.658l5.102,15.479h0.087l4.929-15.479h6.399
		L424.658,34.182z"/>
</g>
</svg>
